<svg width="214" height="64" viewBox="0 0 214 64" fill="none" xmlns="http://www.w3.org/2000/svg">
<path d="M17.0987 7.14665L0.895996 58.6667H12.32L15.8293 47.3173H35.392L39.0507 58.6667H52.1173L35.392 7.14665H17.0987ZM25.4613 16.256L32.3307 37.8347H18.7413L25.4613 16.256ZM69.5867 58.6667V20.5867H57.4907V58.6667H69.5867ZM70.1093 8.78932C70.1093 4.53332 67.72 2.59198 63.5387 2.59198C59.3573 2.59198 56.968 4.53332 56.968 8.78932C56.968 13.0453 59.3573 15.0613 63.5387 15.0613C67.72 15.0613 70.1093 13.0453 70.1093 8.78932Z" fill="#0541F0"/>
<path d="M98.2005 50.8267H89.6885V14.9867H98.2005C107.982 14.9867 111.939 20.3627 111.939 30.368V35.4453C111.939 45.5253 107.982 50.8267 98.2005 50.8267ZM98.2005 58.6667C115.15 58.6667 121.795 49.4827 121.795 32.9067C121.795 15.808 115.15 7.14667 98.2005 7.14667H80.2058V58.6667H98.2005ZM148.393 59.488C161.534 59.488 167.134 52.9173 167.134 39.8507C167.134 26.8587 161.534 20.2133 148.393 20.2133C135.252 20.2133 129.652 26.8587 129.652 39.8507C129.652 52.9173 135.252 59.488 148.393 59.488ZM148.393 52.6933C142.196 52.6933 139.134 49.4827 139.134 42.5387V37.0133C139.134 30.4427 142.196 27.008 148.393 27.008C154.59 27.008 157.652 30.4427 157.652 37.0133V42.5387C157.652 49.4827 154.59 52.6933 148.393 52.6933ZM208.036 46.6453H198.852C198.255 51.2747 195.567 52.6933 191.311 52.6933C185.86 52.6933 183.322 49.3333 183.322 42.688V36.7893C183.322 30.2187 185.86 27.008 191.311 27.008C195.567 27.008 198.18 28.7253 198.628 33.28H207.812C206.991 23.3493 200.719 20.2133 191.311 20.2133C179.29 20.2133 173.839 27.008 173.839 39.8507C173.839 52.6933 179.215 59.488 191.311 59.488C201.018 59.488 206.842 55.68 208.036 46.6453Z" fill="#282828"/>
</svg>
