<svg width="80" height="24" viewBox="0 0 80 24" fill="none" xmlns="http://www.w3.org/2000/svg">
<path d="M6.412 2.68L0.335999 22H4.62L5.936 17.744H13.272L14.644 22H19.544L13.272 2.68H6.412ZM9.548 6.096L12.124 14.188H7.028L9.548 6.096ZM26.095 22V7.72H21.559V22H26.095ZM26.291 3.296C26.291 1.7 25.395 0.972 23.827 0.972C22.259 0.972 21.363 1.7 21.363 3.296C21.363 4.892 22.259 5.648 23.827 5.648C25.395 5.648 26.291 4.892 26.291 3.296Z" fill="#0541F0"/>
<path d="M36.8252 19.06H33.6332V5.61999H36.8252C40.4932 5.61999 41.9772 7.63599 41.9772 11.388V13.292C41.9772 17.072 40.4932 19.06 36.8252 19.06ZM36.8252 22C43.1812 22 45.6732 18.556 45.6732 12.34C45.6732 5.92799 43.1812 2.67999 36.8252 2.67999H30.0772V22H36.8252ZM55.6474 22.308C60.5754 22.308 62.6754 19.844 62.6754 14.944C62.6754 10.072 60.5754 7.57999 55.6474 7.57999C50.7194 7.57999 48.6194 10.072 48.6194 14.944C48.6194 19.844 50.7194 22.308 55.6474 22.308ZM55.6474 19.76C53.3234 19.76 52.1754 18.556 52.1754 15.952V13.88C52.1754 11.416 53.3234 10.128 55.6474 10.128C57.9714 10.128 59.1194 11.416 59.1194 13.88V15.952C59.1194 18.556 57.9714 19.76 55.6474 19.76ZM78.0136 17.492H74.5696C74.3456 19.228 73.3376 19.76 71.7416 19.76C69.6976 19.76 68.7456 18.5 68.7456 16.008V13.796C68.7456 11.332 69.6976 10.128 71.7416 10.128C73.3376 10.128 74.3176 10.772 74.4856 12.48H77.9296C77.6216 8.75599 75.2696 7.57999 71.7416 7.57999C67.2336 7.57999 65.1896 10.128 65.1896 14.944C65.1896 19.76 67.2056 22.308 71.7416 22.308C75.3816 22.308 77.5656 20.88 78.0136 17.492Z" fill="#282828"/>
</svg>
