<svg width="18" height="18" viewBox="0 0 18 18" fill="none" xmlns="http://www.w3.org/2000/svg">
<path d="M7.79001 12.29C8.07001 12.57 8.53001 12.56 8.80001 12.27L13.22 7.47001C13.46 7.20001 13.44 6.79001 13.18 6.55001C12.92 6.31001 12.5 6.32001 12.26 6.59001L8.27001 10.93L5.87001 8.53001C5.62001 8.28001 5.20001 8.28001 4.95001 8.53001C4.70001 8.78001 4.70001 9.20001 4.95001 9.45001L7.79001 12.29Z" fill="#C3D2FC"/>
<path fill-rule="evenodd" clip-rule="evenodd" d="M9 0C4.02944 0 0 4.02944 0 9C0 13.9706 4.02944 18 9 18C13.9706 18 18 13.9706 18 9C18 4.02944 13.9706 0 9 0ZM1.3 9C1.3 4.74741 4.74741 1.3 9 1.3C13.2526 1.3 16.7 4.74741 16.7 9C16.7 13.2526 13.2526 16.7 9 16.7C4.74741 16.7 1.3 13.2526 1.3 9Z" fill="#C3D2FC"/>
</svg>
