<svg width="157" height="106" viewBox="0 0 157 106" fill="none" xmlns="http://www.w3.org/2000/svg">
<path d="M99.5126 87.7861L91.5879 88.3611L91.6417 89.1024L99.5664 88.5274L99.5126 87.7861Z" fill="#407BFF"/>
<path d="M106.634 87.2725L102.742 87.5549L102.795 88.2963L106.687 88.0139L106.634 87.2725Z" fill="#407BFF"/>
<path d="M140.829 0.0230848L9.59648 9.48495C6.86519 9.69803 4.32811 10.9796 2.53583 13.0516C0.743549 15.1236 -0.159336 17.8188 0.0231229 20.5523L4.48276 82.4074C4.69394 85.1428 5.97683 87.6841 8.05228 89.4784C10.1277 91.2727 12.8278 92.1747 15.565 91.9882L22.9977 91.4531C23.5377 91.4142 24.0711 91.5911 24.4808 91.9451C24.8904 92.299 25.143 92.8011 25.1829 93.341L26.0154 104.802C26.029 105.024 26.1086 105.237 26.2441 105.413C26.3796 105.59 26.5647 105.722 26.7756 105.792C26.9866 105.862 27.2138 105.868 27.428 105.808C27.6422 105.748 27.8336 105.626 27.9776 105.456L40.42 91.074C40.9432 90.4716 41.6832 90.1003 42.4789 90.0409L146.775 82.5264C149.508 82.3151 152.047 81.0343 153.84 78.9622C155.634 76.89 156.538 74.1937 156.356 71.459L151.896 9.60387C151.685 6.87125 150.404 4.33229 148.332 2.53844C146.26 0.744582 143.563 -0.159302 140.829 0.0230848Z" fill="#407BFF"/>
<path d="M28.7656 37.878L35.8565 37.3651L36.4362 45.3924L44.1811 44.835L43.6014 36.8076L50.7219 36.2874L52.3794 59.2248L45.2589 59.7376L44.5899 50.4616L36.845 51.0265L37.514 60.3025L30.4306 60.8154L28.7656 37.878Z" fill="white"/>
<path opacity="0.2" d="M9.59648 9.485C6.86519 9.69808 4.32811 10.9797 2.53583 13.0517C0.743549 15.1236 -0.159336 17.8188 0.0231229 20.5523L4.48276 82.4075C4.69394 85.1429 5.97683 87.6842 8.05228 89.4784C10.1277 91.2727 12.8278 92.1748 15.565 91.9883L16.6576 91.9065C18.473 91.7753 20.1943 91.0485 21.5544 89.839C22.9144 88.6294 23.8372 87.0047 24.1795 85.2171L39.1267 7.35181L9.59648 9.485Z" fill="black"/>
<path d="M74.6256 50.8555L61.8561 51.7772C61.9541 52.6043 62.3015 53.3821 62.8521 54.007C63.168 54.3393 63.5564 54.5941 63.9871 54.7514C64.4177 54.9087 64.8789 54.9643 65.3346 54.9138C65.9606 54.8691 66.5646 54.6643 67.0888 54.3192C67.499 54.0086 67.8491 53.6257 68.1219 53.1894L74.4397 53.3158C73.7523 54.8735 72.6361 56.2036 71.2214 57.151C69.9231 57.9736 68.0055 58.4691 65.4684 58.6376C63.6947 58.844 61.8972 58.6536 60.2061 58.0801C58.8503 57.511 57.6868 56.5641 56.8539 55.3523C55.8991 53.9728 55.3505 52.353 55.2707 50.6771C55.1381 49.5133 55.2508 48.3346 55.6016 47.217C55.9523 46.0994 56.5334 45.0677 57.3073 44.1884C58.8533 42.464 61.0831 41.4952 63.9968 41.2822C65.9257 41.053 67.8814 41.2822 69.7051 41.9511C71.1014 42.5476 72.2779 43.5632 73.0721 44.8573C73.9814 46.4646 74.4912 48.2668 74.5587 50.1123L74.6256 50.8555ZM67.9361 48.2689C67.8457 47.3023 67.4289 46.3953 66.7543 45.6972C66.4145 45.4357 66.0246 45.2468 65.6088 45.1423C65.193 45.0377 64.7602 45.0197 64.3371 45.0894C63.9141 45.1591 63.5099 45.315 63.1496 45.5474C62.7893 45.7798 62.4806 46.0838 62.2426 46.4405C61.8459 47.1398 61.6456 47.9334 61.6629 48.7372L67.9361 48.2689Z" fill="white"/>
<path d="M76.5952 34.4218L82.9799 33.9609L84.6374 56.8909L78.2527 57.3517L76.5952 34.4218Z" fill="white"/>
<path d="M87.2612 33.6487L93.6459 33.1879L95.3034 56.1178L88.9262 56.5787L87.2612 33.6487Z" fill="white"/>
<path d="M97.9942 47.6223C97.8735 46.459 97.9991 45.2833 98.3628 44.1717C98.7265 43.0602 99.3201 42.0377 100.105 41.1707C101.696 39.4017 103.948 38.4106 106.861 38.1976C110.181 37.9597 112.763 38.7426 114.606 40.5463C116.137 42.1609 117.022 44.2818 117.092 46.5058C117.162 48.7299 116.412 50.9021 114.985 52.6096C113.41 54.3638 111.125 55.3548 108.132 55.5827C105.807 55.8616 103.459 55.3087 101.502 54.0218C100.462 53.2997 99.6034 52.3458 98.9946 51.2352C98.3858 50.1246 98.0433 48.8878 97.9942 47.6223ZM104.379 47.1466C104.367 48.3198 104.77 49.4596 105.516 50.3649C105.817 50.6732 106.182 50.9123 106.584 51.0657C106.987 51.2191 107.418 51.2832 107.848 51.2535C108.278 51.2238 108.696 51.101 109.074 50.8937C109.451 50.6864 109.779 50.3995 110.035 50.0528C110.636 49.0181 110.862 47.808 110.674 46.6263C110.682 45.4766 110.284 44.361 109.552 43.4748C109.266 43.1608 108.911 42.917 108.515 42.7623C108.12 42.6076 107.694 42.5462 107.27 42.5829C106.829 42.6034 106.398 42.7254 106.011 42.9394C105.624 43.1534 105.292 43.4536 105.04 43.8167C104.441 44.8166 104.218 45.9968 104.409 47.1466H104.379Z" fill="white"/>
<path d="M119.103 31.3446L125.904 30.854L126.283 36.0569L125.726 46.6486L121.519 46.9533L119.475 36.5475L119.103 31.3446ZM120.59 48.648L126.937 48.1871L127.346 53.8063L120.991 54.2597L120.59 48.648Z" fill="white"/>
</svg>
