<svg width="24" height="24" viewBox="0 0 25 25" fill="none" xmlns="http://www.w3.org/2000/svg">
<path fill-rule="evenodd" clip-rule="evenodd" d="M0 12C0 5.37258 5.37258 0 12 0C18.6274 0 24 5.37258 24 12C24 18.6274 18.6274 24 12 24C5.37258 24 0 18.6274 0 12ZM12 5.66667C12.5523 5.66667 13 6.11438 13 6.66667V13.3333C13 13.8856 12.5523 14.3333 12 14.3333C11.4477 14.3333 11 13.8856 11 13.3333V6.66667C11 6.11438 11.4477 5.66667 12 5.66667ZM12 18.2667C12.6259 18.2667 13.1333 17.7593 13.1333 17.1334C13.1333 16.5074 12.6259 16 12 16C11.3741 16 10.8667 16.5074 10.8667 17.1334C10.8667 17.7593 11.3741 18.2667 12 18.2667Z" fill="#0541F0"/>
</svg>
