<svg width="24" height="24" viewBox="0 0 24 24" fill="none" xmlns="http://www.w3.org/2000/svg">
<path fill-rule="evenodd" clip-rule="evenodd" d="M6.5 2.51667H14.6667C15.762 2.51667 16.65 3.40464 16.65 4.5V4.90833C16.65 5.32715 16.9895 5.66667 17.4083 5.66667C17.8272 5.66667 18.1667 5.32715 18.1667 4.90833V4.5C18.1667 2.567 16.5997 1 14.6667 1H6.5C4.567 1 3 2.567 3 4.5V18.5C3 20.433 4.567 22 6.5 22H14.6667C16.5997 22 18.1667 20.433 18.1667 18.5V18.0917C18.1667 17.6728 17.8272 17.3333 17.4083 17.3333C16.9895 17.3333 16.65 17.6728 16.65 18.0917V18.5C16.65 19.5954 15.762 20.4833 14.6667 20.4833H6.5C6.26939 20.4833 6.04797 20.444 5.8421 20.3716L8.44538 18.884C9.15422 18.479 9.59167 17.7252 9.59167 16.9088V5.96349C9.59167 5.14709 9.15422 4.39328 8.44538 3.98824L5.98725 2.58359C6.1508 2.53994 6.32269 2.51667 6.5 2.51667ZM17 15C17.1517 15.1633 17.35 15.245 17.56 15.245C17.7467 15.245 17.9217 15.1867 18.0733 15.0467L21.235 12.0419C21.5967 11.7152 21.5967 11.1552 21.235 10.8286L18.0733 7.95333C17.7583 7.67333 17.28 7.69667 17 8C16.72 8.315 16.7317 8.79333 17.0467 9.07333L18.8557 10.6769H13.0917C12.6729 10.6769 12.3333 11.0164 12.3333 11.4352C12.3333 11.8541 12.6729 12.1936 13.0917 12.1936H18.8639L17.0467 13.9267C16.7433 14.2067 16.72 14.685 17 15Z" fill="#ABADC6"/>
</svg>
