<svg width="43" height="53" viewBox="0 0 43 53" fill="none" xmlns="http://www.w3.org/2000/svg">
<path d="M42.657 3.1V42.9125H0.0820312V11.7125L11.2945 0.5H40.1383C41.5195 0.5 42.657 1.71875 42.657 3.1Z" fill="#EFF2F3"/>
<path d="M8.93711 11.7125H0.162109L11.2934 0.5L11.2121 9.275C11.2934 10.6563 10.2371 11.7125 8.93711 11.7125Z" fill="#DADEDE"/>
<path d="M25.5125 23.25C23.1563 20.975 21.45 18.375 21.45 18.375C22.1 17.4 23.6438 11.7938 21.2875 10.1688C18.9313 8.54379 17.7125 11.55 17.7125 11.55C16.6563 15.2875 19.175 18.7 19.175 18.7L16.3313 24.9563C16.0063 24.9563 6.9875 28.45 10.075 32.7563C13.2438 37.0625 17.6313 26.6625 17.6313 26.6625C19.3375 26.0938 24.5375 25.3625 24.5375 25.3625C26.5688 28.125 29.0063 29.0188 29.0063 29.0188C32.7438 29.9938 33.15 26.9063 33.15 26.9063C33.2313 22.8438 25.5125 23.25 25.5125 23.25ZM11.6188 31.2938C11.5375 31.2938 11.5375 31.2125 11.5375 31.2125C11.05 30.075 14.7875 27.8813 14.7875 27.8813C14.7875 27.8813 12.7563 31.7813 11.6188 31.2938ZM20.0688 11.6313C21.125 12.6063 20.2313 15.9375 20.2313 15.9375C20.2313 15.9375 19.0125 12.6063 20.0688 11.6313ZM19.0938 24.225L20.5563 20.65L22.8313 23.4125L19.0938 24.225ZM31.1188 26.825C30.4688 27.8813 27.7875 25.6063 27.5438 25.3625C27.95 25.3625 31.4438 25.6063 31.1188 26.825ZM42.6563 40.3125V49.9C42.6563 51.2813 41.5188 52.5 40.0563 52.5H2.6C1.21875 52.5 0 51.3625 0 49.9V40.3125H42.6563Z" fill="#F2786B"/>
<path d="M18.0375 44.5375C18.0375 45.1875 17.7938 45.6749 17.3875 46.0812C16.9813 46.4062 16.3312 46.5687 15.5187 46.5687H14.8687V48.925H13.8125V42.6687H15.6812C16.4938 42.6687 17.0625 42.8312 17.4688 43.1562C17.875 43.4812 18.0375 43.8875 18.0375 44.5375ZM14.95 45.7562H15.5187C16.0062 45.7562 16.4125 45.675 16.6563 45.5125C16.9 45.35 17.0625 45.025 17.0625 44.6187C17.0625 44.2937 16.9812 43.9687 16.7375 43.8062C16.4937 43.6437 16.1688 43.5625 15.6812 43.5625H14.95V45.7562ZM24.4563 45.7562C24.4563 46.8125 24.1313 47.625 23.5625 48.1125C22.9938 48.6812 22.1813 48.925 21.0438 48.925H19.2563V42.6687H21.2063C22.1813 42.6687 22.9938 42.9125 23.5625 43.4812C24.1313 43.9687 24.4563 44.7812 24.4563 45.7562ZM23.3188 45.7562C23.3188 44.2125 22.5875 43.4812 21.2063 43.4812H20.3125V48.0312H21.0438C22.5875 48.1125 23.3188 47.3 23.3188 45.7562ZM26.8125 48.925H25.7563V42.6687H29.3313V43.5625H26.8125V45.5125H29.1688V46.4062H26.8125V48.925Z" fill="#EFF2F3"/>
</svg>
