<svg width="36" height="36" viewBox="0 0 37 36" fill="none" xmlns="http://www.w3.org/2000/svg">
<path fill-rule="evenodd" clip-rule="evenodd" d="M18 0C8.05887 0 0 8.05887 0 18C0 27.9411 8.05887 36 18 36C27.9411 36 36 27.9411 36 18C36 8.05887 27.9411 0 18 0ZM10 26C9.28203 26 8.7 26.582 8.7 27.3C8.7 28.018 9.28203 28.6 10 28.6H26C27.6766 28.6 27.6766 26 26 26H10ZM18.0675 22.025C18.7855 22.025 19.3675 21.443 19.3675 20.725L19.3675 10.5523L23.1601 14.6468C23.6401 15.1868 24.4601 15.2068 25.0001 14.7268C25.5201 14.2468 25.5601 13.4268 25.0801 12.8868L19.1075 6.46679C18.5475 5.84679 17.5875 5.84679 17.0275 6.46679L10.9201 12.8868C10.6801 13.1468 10.5801 13.4468 10.5801 13.7668C10.5801 14.1268 10.7201 14.4668 11.0001 14.7268C11.5401 15.2068 12.3601 15.1668 12.8401 14.6468L16.7675 10.4564L16.7675 20.725C16.7675 21.443 17.3495 22.025 18.0675 22.025Z" fill="#ABADC6"/>
</svg>
