<svg width="56" height="53" viewBox="0 0 56 53" fill="none" xmlns="http://www.w3.org/2000/svg">
<path d="M53.6124 0.500003H15.4104C15.0973 0.499741 14.7873 0.561144 14.4979 0.680709C14.2086 0.800273 13.9456 0.975657 13.7241 1.19685C13.5025 1.41804 13.3267 1.6807 13.2066 1.96984C13.0866 2.25898 13.0247 2.56893 13.0244 2.882V13.5L35.1624 20L56.0004 13.5V2.882C56.0001 2.56876 55.9382 2.25865 55.818 1.96938C55.6978 1.68011 55.5218 1.41735 55.3 1.19614C55.0783 0.974923 54.8151 0.799581 54.5255 0.680134C54.2359 0.560688 53.9257 0.499478 53.6124 0.500003Z" fill="#41A5EE"/>
<path d="M56.0004 13.5H13.0244V26.5L35.1624 30.4L56.0004 26.5V13.5Z" fill="#2B7CD3"/>
<path d="M13.0244 26.5V39.5L33.8604 42.1L56.0004 39.5V26.5H13.0244Z" fill="#185ABD"/>
<path d="M15.4104 52.5H53.6104C53.9238 52.5008 54.2343 52.4398 54.5241 52.3204C54.8139 52.2011 55.0773 52.0258 55.2993 51.8046C55.5213 51.5833 55.6975 51.3205 55.8178 51.0311C55.9381 50.7417 56.0001 50.4314 56.0004 50.118V39.5H13.0244V50.118C13.0247 50.4311 13.0866 50.741 13.2066 51.0302C13.3267 51.3193 13.5025 51.582 13.7241 51.8032C13.9456 52.0243 14.2086 52.1997 14.4979 52.3193C14.7873 52.4389 15.0973 52.5003 15.4104 52.5Z" fill="#103F91"/>
<path opacity="0.1" d="M28.8684 10.9H13.0244V43.4H28.8684C29.4997 43.3969 30.1044 43.1451 30.5514 42.6992C30.9984 42.2533 31.2517 41.6493 31.2564 41.018V13.282C31.2517 12.6507 30.9984 12.0466 30.5514 11.6008C30.1044 11.1549 29.4997 10.9031 28.8684 10.9Z" fill="black"/>
<path opacity="0.2" d="M27.5664 12.2H13.0244V44.7H27.5664C28.1977 44.6969 28.8024 44.4451 29.2494 43.9992C29.6964 43.5534 29.9497 42.9493 29.9544 42.318V14.582C29.9497 13.9507 29.6964 13.3467 29.2494 12.9008C28.8024 12.4549 28.1977 12.2032 27.5664 12.2Z" fill="black"/>
<path opacity="0.2" d="M27.5664 12.2H13.0244V42.1H27.5664C28.1977 42.0969 28.8024 41.8451 29.2494 41.3992C29.6964 40.9534 29.9497 40.3493 29.9544 39.718V14.582C29.9497 13.9507 29.6964 13.3467 29.2494 12.9008C28.8024 12.4549 28.1977 12.2032 27.5664 12.2Z" fill="black"/>
<path opacity="0.2" d="M26.2644 12.2H13.0244V42.1H26.2644C26.8957 42.0969 27.5004 41.8451 27.9474 41.3992C28.3944 40.9534 28.6477 40.3493 28.6524 39.718V14.582C28.6477 13.9507 28.3944 13.3467 27.9474 12.9008C27.5004 12.4549 26.8957 12.2032 26.2644 12.2Z" fill="black"/>
<path d="M2.388 12.2H26.264C26.8965 12.1995 27.5033 12.4501 27.951 12.8967C28.3988 13.3434 28.6509 13.9496 28.652 14.582V38.418C28.6509 39.0505 28.3988 39.6566 27.951 40.1033C27.5033 40.5499 26.8965 40.8005 26.264 40.8H2.388C2.07476 40.8005 1.76449 40.7393 1.47492 40.6199C1.18534 40.5004 0.922151 40.3251 0.700378 40.1039C0.478606 39.8827 0.302602 39.6199 0.182427 39.3306C0.0622525 39.0414 0.000262344 38.7313 0 38.418V14.582C0.000262344 14.2688 0.0622525 13.9587 0.182427 13.6694C0.302602 13.3801 0.478606 13.1174 0.700378 12.8962C0.922151 12.6749 1.18534 12.4996 1.47492 12.3801C1.76449 12.2607 2.07476 12.1995 2.388 12.2Z" fill="url(#paint0_linear_207_17)"/>
<path d="M9.79988 30.476C9.84588 30.844 9.87788 31.164 9.89188 31.438H9.94788C9.96788 31.178 10.0119 30.864 10.0779 30.498C10.1439 30.132 10.2019 29.822 10.2559 29.568L12.7659 18.754H16.0139L18.6139 29.406C18.7653 30.0649 18.8736 30.733 18.9379 31.406H18.9819C19.0297 30.7508 19.1198 30.0995 19.2519 29.456L21.3299 18.74H24.2839L20.6359 34.236H17.1819L14.7079 23.984C14.6359 23.688 14.5545 23.3027 14.4639 22.828C14.3732 22.3533 14.3172 22.0067 14.2959 21.788H14.2539C14.2259 22.04 14.1699 22.414 14.0859 22.91C14.0019 23.408 13.9359 23.774 13.8859 24.014L11.5599 34.242H8.04788L4.37988 18.754H7.37988L9.64188 29.59C9.70939 29.8825 9.76213 30.1782 9.79988 30.476Z" fill="white"/>
<defs>
<linearGradient id="paint0_linear_207_17" x1="4.988" y1="10.328" x2="23.664" y2="42.672" gradientUnits="userSpaceOnUse">
<stop stop-color="#2368C4"/>
<stop offset="0.5" stop-color="#1A5DBE"/>
<stop offset="1" stop-color="#1146AC"/>
</linearGradient>
</defs>
</svg>
